<?xml version="1.0" encoding="iso-8859-1"?>
<!-- Generator: Adobe Illustrator 19.0.0, SVG Export Plug-In . SVG Version: 6.00 Build 0)  -->
<svg version="1.1" id="Capa_1" xmlns="http://www.w3.org/2000/svg" xmlns:xlink="http://www.w3.org/1999/xlink" x="0px" y="0px"
	 viewBox="0 0 409.6 409.6" style="enable-background:new 0 0 409.6 409.6;" xml:space="preserve" fill="#828282">
<g>
	<g>
		<path d="M375.465,0H34.135C15.365,0,0,15.365,0,34.135V375.47c0,18.76,15.365,34.13,34.135,34.13h341.33
			c18.77,0,34.135-15.37,34.135-34.13V34.135C409.6,15.365,394.235,0,375.465,0z M375.465,375.47h-136.53V238.93h85.33V204.8h-85.33
			v-34.135c0-28.283,22.932-51.2,51.2-51.2h34.13V85.33h-34.13c-47.119,0.005-85.335,38.195-85.335,85.335V204.8h-34.135v34.13
			H204.8v136.54H34.135V34.135h341.33V375.47z"/>
	</g>
</g>
<g>
</g>
<g>
</g>
<g>
</g>
<g>
</g>
<g>
</g>
<g>
</g>
<g>
</g>
<g>
</g>
<g>
</g>
<g>
</g>
<g>
</g>
<g>
</g>
<g>
</g>
<g>
</g>
<g>
</g>
</svg>
