<?xml version="1.0" encoding="iso-8859-1"?>
<!-- Generator: Adobe Illustrator 19.0.0, SVG Export Plug-In . SVG Version: 6.00 Build 0)  -->
<svg version="1.1" id="Capa_1" xmlns="http://www.w3.org/2000/svg" xmlns:xlink="http://www.w3.org/1999/xlink" x="0px" y="0px"
	 viewBox="0 0 409.6 409.6" style="enable-background:new 0 0 409.6 409.6;" xml:space="preserve" fill="#828282">
<g>
	<g>
		<path d="M375.465,85.335c0-47.13-38.2-85.335-85.33-85.335C243,0,204.8,38.205,204.8,85.335v51.2
			c-73.836,0-139.802-33.531-183.634-86.139c-44.431,97.597-16.599,214.61,69.786,281.288C66.801,353.336,34.964,366.602,0,366.602
			C38.717,393.631,85.734,409.6,136.535,409.6c131.978,0,238.93-106.998,238.93-238.935v-51.2l34.135-34.13H375.465z
			 M341.335,170.665L341.335,170.665c0,112.937-91.868,204.8-204.8,204.8c-13.901,0-27.622-1.398-41.001-4.137
			c6.328-4.301,12.416-9.052,18.202-14.229l30.531-27.372L111.8,304.66c-59.817-46.188-87.199-120.074-74.665-191.549
			c47.514,37.043,106.23,57.549,167.665,57.549h34.135V85.335c0-28.232,22.963-51.2,51.2-51.2c28.232,0,51.2,22.968,51.2,51.2
			V170.665z"/>
	</g>
</g>
<g>
	<g>
		<path d="M298.65,68.27c-9.4,0-17.05,7.644-17.05,17.065s7.649,17.065,17.05,17.065c9.436,0,17.085-7.639,17.085-17.065
			S308.086,68.265,298.65,68.27z"/>
	</g>
</g>
<g>
</g>
<g>
</g>
<g>
</g>
<g>
</g>
<g>
</g>
<g>
</g>
<g>
</g>
<g>
</g>
<g>
</g>
<g>
</g>
<g>
</g>
<g>
</g>
<g>
</g>
<g>
</g>
<g>
</g>
</svg>
