<?xml version="1.0" encoding="iso-8859-1"?>
<!-- Generator: Adobe Illustrator 19.0.0, SVG Export Plug-In . SVG Version: 6.00 Build 0)  -->
<svg version="1.1" id="Capa_1" xmlns="http://www.w3.org/2000/svg" xmlns:xlink="http://www.w3.org/1999/xlink" x="0px" y="0px"
	 viewBox="0 0 409.592 409.592" style="enable-background:new 0 0 409.592 409.592;" xml:space="preserve" fill="#828282">
<g>
	<g>
		<path d="M403.882,107.218c-2.15-17.935-19.052-35.144-36.736-37.443C259.309,56.382,150.263,56.382,42.461,69.781
			C24.762,72.075,7.86,89.283,5.71,107.218c-7.613,65.715-7.613,129.449,0,195.164c2.15,17.935,19.052,35.149,36.751,37.437
			c107.802,13.389,216.852,13.389,324.685,0c17.684-2.284,34.586-19.502,36.736-37.437
			C411.496,236.667,411.496,172.933,403.882,107.218z M369.983,298.45c-0.384,2.381-4.772,6.979-7.301,7.532
			c-52.019,6.451-105.221,9.748-157.885,9.748S98.93,312.428,46.66,305.951c-2.299-0.522-6.666-5.12-7.066-7.649
			c-7.286-62.868-7.286-124.134,0.036-187.151c0.364-2.391,4.751-6.984,7.301-7.532c51.999-6.461,105.201-9.748,157.88-9.748
			c52.649,0,105.851,3.292,158.136,9.784c2.248,0.507,6.651,5.099,7.05,7.649C377.279,174.167,377.279,235.428,369.983,298.45z"/>
	</g>
</g>
<g>
	<g>
		<polygon points="170.661,136.53 170.661,273.065 273.061,204.8 		"/>
	</g>
</g>
<g>
</g>
<g>
</g>
<g>
</g>
<g>
</g>
<g>
</g>
<g>
</g>
<g>
</g>
<g>
</g>
<g>
</g>
<g>
</g>
<g>
</g>
<g>
</g>
<g>
</g>
<g>
</g>
<g>
</g>
</svg>
